<svg xmlns="http://www.w3.org/2000/svg" viewBox="0 0 512 512">
  <rect width="512" height="512" rx="112" fill="#193133"/>
  <g transform="translate(124,96) scale(0.62)" fill="#D0FF71">
    <path d="M212.17 363.73H181.86V394.04V424.35V454.66V484.97V515.28H212.17H242.48V484.97V454.66V424.35V394.04H212.17V363.73Z"/>
    <path d="M91.83 363.73V394.04H61.52V424.35H31.21V394.04H61.52V363.73H91.83V333.42H61.52H31.21V363.73H0.900024V394.04V424.35V454.66H31.21V484.97H61.52H91.83V454.66H122.14V424.35H152.45V394.04V363.73H122.14H91.83Z"/>
    <path d="M393.87 333.42H363.56H333.25V363.73H363.56V394.04H393.87V424.35H363.56V394.04H333.25V363.73H302.94H272.62V394.04V424.35H302.94V454.66H333.25V484.97H363.56H393.87V454.66H424.18V424.35V394.04V363.73H393.87V333.42Z"/>
    <path d="M394.04 121.25V90.94H303.11V121.25H272.79V90.93H303.1V30.31H272.79V0H151.55V30.31H121.24V90.93H151.55V121.24H121.24V90.93H30.31V121.24H0V212.17H30.31V242.48H121.24V212.17H151.55V242.48H121.24V303.1H151.55V333.41H272.79V303.1H303.1V242.48H272.79V212.18H303.11V242.49H394.04V212.18H424.35V121.25H394.04ZM242.49 181.87V212.17H181.86V181.86H151.55V151.55H181.86V121.24H242.48V126.59V151.56H272.79V181.87H242.48H242.49Z"/>
  </g>
</svg>
